<svg xmlns="http://www.w3.org/2000/svg" fill="none" viewBox="9.91 38.56 77.93 23.53">
<path d="M13.8498 38.7266L87.8387 38.5631L72.237 50.2817L87.7885 61.928L13.7995 62.0916C11.6462 62.0948 9.83617 59.8235 9.9156 58.2092L9.94819 42.6298C9.87339 39.954 11.6937 38.7326 13.8498 38.7266Z" fill="black"/>
<path d="M20.8807 53V45.7273H23.4233C23.9299 45.7273 24.3478 45.8149 24.6768 45.9901C25.0059 46.1629 25.2509 46.3961 25.4119 46.6896C25.5729 46.9808 25.6534 47.304 25.6534 47.6591C25.6534 47.9716 25.5978 48.2296 25.4865 48.4332C25.3776 48.6368 25.2332 48.7978 25.0533 48.9162C24.8757 49.0346 24.6828 49.1222 24.4744 49.179V49.25C24.697 49.2642 24.9207 49.3423 25.1456 49.4844C25.3705 49.6264 25.5587 49.83 25.7102 50.0952C25.8617 50.3603 25.9375 50.6847 25.9375 51.0682C25.9375 51.4328 25.8546 51.7607 25.6889 52.0518C25.5232 52.343 25.2616 52.5739 24.9041 52.7443C24.5466 52.9148 24.0814 53 23.5085 53H20.8807ZM21.7614 52.2188H23.5085C24.0838 52.2188 24.4922 52.1075 24.7337 51.8849C24.9775 51.66 25.0994 51.3878 25.0994 51.0682C25.0994 50.822 25.0367 50.5947 24.9112 50.3864C24.7857 50.1757 24.607 50.0076 24.375 49.8821C24.143 49.7543 23.8684 49.6903 23.5511 49.6903H21.7614V52.2188ZM21.7614 48.9233H23.3949C23.66 48.9233 23.8991 48.8712 24.1122 48.767C24.3277 48.6629 24.4981 48.5161 24.6236 48.3267C24.7514 48.1373 24.8153 47.9148 24.8153 47.6591C24.8153 47.3395 24.7041 47.0684 24.4815 46.8459C24.259 46.621 23.9063 46.5085 23.4233 46.5085H21.7614V48.9233ZM30.7085 50.7699V47.5455H31.5465V53H30.7085V52.0767H30.6516C30.5238 52.3537 30.3249 52.5893 30.055 52.7834C29.7852 52.9751 29.4442 53.071 29.0323 53.071C28.6914 53.071 28.3884 52.9964 28.1232 52.8473C27.8581 52.6958 27.6497 52.4685 27.4982 52.1655C27.3467 51.8601 27.271 51.4754 27.271 51.0114V47.5455H28.109V50.9545C28.109 51.3523 28.2203 51.6695 28.4428 51.9062C28.6677 52.143 28.9542 52.2614 29.3022 52.2614C29.5105 52.2614 29.7224 52.2081 29.9379 52.1016C30.1557 51.995 30.3379 51.8317 30.4847 51.6115C30.6339 51.3913 30.7085 51.1108 30.7085 50.7699ZM33.6213 55.0455C33.4792 55.0455 33.3526 55.0336 33.2413 55.0099C33.13 54.9886 33.0531 54.9673 33.0105 54.946L33.2235 54.2074C33.4271 54.2595 33.6071 54.2784 33.7633 54.2642C33.9196 54.25 34.0581 54.1802 34.1788 54.0547C34.3019 53.9316 34.4144 53.7315 34.5162 53.4545L34.6724 53.0284L32.6554 47.5455H33.5645L35.0701 51.892H35.127L36.6326 47.5455H37.5417L35.2264 53.7955C35.1222 54.0772 34.9932 54.3104 34.8393 54.495C34.6854 54.6821 34.5067 54.8205 34.3031 54.9105C34.1019 55.0005 33.8746 55.0455 33.6213 55.0455ZM47.3411 45.7273V53H46.4888L42.5257 47.2898H42.4547V53H41.574V45.7273H42.4263L46.4036 51.4517H46.4746V45.7273H47.3411ZM51.2056 53.1136C50.7132 53.1136 50.2811 52.9964 49.9094 52.7621C49.5401 52.5277 49.2513 52.1998 49.043 51.7784C48.837 51.357 48.734 50.8646 48.734 50.3011C48.734 49.733 48.837 49.237 49.043 48.8132C49.2513 48.3894 49.5401 48.0604 49.9094 47.826C50.2811 47.5916 50.7132 47.4744 51.2056 47.4744C51.698 47.4744 52.1289 47.5916 52.4982 47.826C52.8699 48.0604 53.1587 48.3894 53.3647 48.8132C53.573 49.237 53.6772 49.733 53.6772 50.3011C53.6772 50.8646 53.573 51.357 53.3647 51.7784C53.1587 52.1998 52.8699 52.5277 52.4982 52.7621C52.1289 52.9964 51.698 53.1136 51.2056 53.1136ZM51.2056 52.3608C51.5797 52.3608 51.8874 52.2649 52.1289 52.0732C52.3704 51.8814 52.5491 51.6293 52.6651 51.3168C52.7811 51.0043 52.8391 50.6657 52.8391 50.3011C52.8391 49.9366 52.7811 49.5968 52.6651 49.282C52.5491 48.9671 52.3704 48.7126 52.1289 48.5185C51.8874 48.3243 51.5797 48.2273 51.2056 48.2273C50.8316 48.2273 50.5238 48.3243 50.2823 48.5185C50.0408 48.7126 49.8621 48.9671 49.7461 49.282C49.6301 49.5968 49.5721 49.9366 49.5721 50.3011C49.5721 50.6657 49.6301 51.0043 49.7461 51.3168C49.8621 51.6293 50.0408 51.8814 50.2823 52.0732C50.5238 52.2649 50.8316 52.3608 51.2056 52.3608ZM56.0067 53L54.3448 47.5455H55.2255L56.4045 51.7216H56.4613L57.6261 47.5455H58.521L59.6715 51.7074H59.7283L60.9073 47.5455H61.788L60.1261 53H59.3022L58.109 48.8097H58.0238L56.8306 53H56.0067Z" fill="white"/>
</svg>