<svg width="304" height="294" viewBox="0 0 304 294" fill="none" xmlns="http://www.w3.org/2000/svg">
<path d="M152.141 293.186C235.185 293.186 302.987 228.131 302.987 147.295C302.987 66.46 235.185 1.40381 152.141 1.40381C69.0979 1.40381 1.29492 66.46 1.29492 147.295C1.29492 228.131 69.0979 293.186 152.141 293.186Z" fill="white" stroke="black" stroke-width="1.5625"/>
<path d="M140.795 220.898C98.5781 220.898 73.7451 186.788 73.7451 144.358C73.7451 100.263 101.061 64.489 153.21 64.489C207.016 64.489 225.226 101.096 226.054 121.894H187.149C186.322 110.247 176.388 92.776 152.383 92.776C126.723 92.776 110.167 115.239 110.167 142.694C110.167 170.149 126.723 192.611 152.383 192.611C175.561 192.611 185.494 174.308 189.633 156.006H152.383V141.03H230.545V217.57H196.255V169.316C193.771 186.788 183.01 220.898 140.795 220.898Z" fill="black"/>
</svg>
