<svg width="274" height="667" viewBox="0 0 274 667" fill="none" xmlns="http://www.w3.org/2000/svg">
<path d="M19.2474 629.396C19.6288 629.908 19.8624 630.232 19.9242 630.328C20.2514 630.808 20.594 631.283 20.9518 631.745C37.9256 653.82 64.205 667 91.2547 667C100.705 667 110.023 665.426 118.943 662.324C149.769 651.602 170.934 625.706 177.025 591.28C182.646 559.455 176.25 460.277 165.049 300.722C159.079 215.646 153.462 135.591 152.692 91.0121C152.591 85.0418 153.828 79.5467 156.28 75.1188C164.605 60.0522 176.784 57.8018 183.303 57.8018C183.86 57.8018 184.389 57.8219 184.885 57.8463C198.704 58.5459 211.104 68.6371 218.029 84.8333C222.583 95.4845 232.994 102.364 244.545 102.364C248.454 102.364 252.268 101.574 255.891 100.015C270.51 93.7378 277.302 76.7147 271.039 62.0692C255.476 25.6754 223.566 1.93713 187.768 0.120255C153.742 -1.65146 122.886 16.2554 105.831 47.1131C98.4862 60.392 94.7502 75.9171 95.0303 92.0147C95.8243 138.254 101.503 219.141 107.516 304.778C114.907 409.986 125.026 554.076 120.228 581.208C117.2 598.374 107.574 605.101 100.039 607.723C97.2991 608.676 94.3924 609.161 91.4066 609.161C82.4006 609.161 73.3857 604.727 67.2913 597.301L66.953 596.842C65.3533 594.462 57.1718 582.24 53.0308 575.246C47.8621 566.516 38.3458 561.092 28.2027 561.092C23.0535 561.092 17.9743 562.493 13.5143 565.149C0.374288 572.964 -3.76326 589.806 3.6749 605.195C5.68716 609.357 10.0196 616.933 19.2474 629.396Z" fill="black"/>
</svg>
